<svg width="354" height="1176" viewBox="0 0 354 1176" fill="none" xmlns="http://www.w3.org/2000/svg">
<path d="M208.565 0.253906C220.165 -1.74873 324.962 8.66467 328.966 11.8691C338.166 19.4793 342.165 50.3209 346.565 146.85C350.565 224.553 350.166 261.803 346.166 333.099C339.766 436.837 340.166 442.845 348.966 538.974C355.766 609.067 355.766 614.675 348.166 687.171C339.766 772.084 338.566 889.842 344.166 1053.26C346.966 1139.37 346.966 1156.2 342.166 1159.4C334.966 1163.81 283.766 1167.01 130.966 1173.02C32.5662 1176.62 8.56612 1176.62 6.16589 1172.22C-3.03411 1157 -2.23469 1056.06 10.5653 744.447C12.9653 692.778 14.5653 585.436 14.5653 506.13C14.5653 426.824 16.5653 337.505 18.5653 307.865C21.7653 265.409 21.3653 236.57 16.5653 175.688C13.3653 132.832 10.5653 81.1627 10.5653 61.1357C10.5653 5.862 5.36566 8.66563 114.565 4.25977C164.163 2.25719 206.561 0.654539 208.565 0.253906ZM20.9657 1001.99C18.9656 999.992 14.5653 1076.09 14.5653 1112.94C14.5653 1157.4 16.9661 1165.01 29.3661 1165.01C38.5656 1165.01 38.9656 1163.81 36.9657 1149.79C35.7657 1141.78 31.7653 1105.33 28.5653 1068.88C24.9653 1032.83 21.7657 1002.79 20.9657 1001.99ZM60.5653 905.863C48.9654 829.362 28.1659 745.25 24.9657 760.469C19.3657 786.904 18.5657 815.743 22.9657 826.958C27.7657 839.375 40.1657 948.721 36.9657 951.524C33.3657 955.128 26.5659 922.685 26.1659 900.656C25.3659 858.6 19.3657 852.192 18.9657 892.245C18.5657 935.102 22.9657 973.954 36.9657 1052.86C42.1657 1082.5 47.7657 1120.15 48.9657 1135.77C51.3656 1162.61 52.5656 1165.01 60.5653 1165.01C68.9653 1165.01 69.7653 1163.01 72.5653 1129.36C74.5653 1103.73 73.7656 1085.7 68.9657 1062.47C65.7657 1045.25 60.9653 1015.61 58.5653 996.784C56.5653 977.959 52.9653 956.331 50.5653 948.721C48.5653 941.111 46.5654 927.492 46.5653 918.681C46.5653 909.869 42.9653 883.834 38.5653 860.603C28.5654 808.533 28.9658 796.517 38.9657 836.57C47.7657 871.016 55.3653 917.078 64.5653 988.773C68.1653 1016.41 73.3653 1056.87 76.5653 1078.89C79.7653 1101.72 81.3655 1128.96 79.7655 1142.58C78.1655 1159.8 78.5657 1165.41 81.7655 1163.41C90.1655 1158.2 87.7653 1060.87 78.5653 1012.81C73.7653 989.575 65.7653 941.511 60.5653 905.863ZM225.366 40.3076C234.966 63.9389 235.366 68.3451 232.966 112.003C230.966 151.656 231.765 164.073 238.565 194.113C246.165 224.954 246.965 236.971 244.565 283.833C242.165 335.502 231.765 424.02 227.766 428.025C224.166 432.027 231.366 309.867 235.766 295.849C241.365 276.623 239.765 218.545 232.565 190.508C228.965 176.89 226.565 149.653 226.565 124.82C226.565 85.1678 225.766 80.7616 216.166 66.7432C201.366 45.5148 192.966 47.1169 180.166 72.3506C174.166 83.9659 166.166 97.5836 162.166 103.592C158.166 109.199 148.165 136.035 140.565 163.672C127.365 209.733 122.565 222.951 122.565 213.339C122.565 193.713 157.766 56.7301 168.166 34.2998C175.366 19.8806 176.166 15.4746 171.766 15.4746C164.966 15.4748 159.365 28.2918 140.565 89.5732C132.565 116.008 121.366 149.252 116.166 163.672C104.566 195.715 104.165 220.949 114.565 257.798C123.765 290.241 124.565 316.676 116.565 333.899C111.365 345.515 111.366 345.115 110.966 319.08C110.566 303.86 107.766 275.021 104.166 254.994C96.1659 208.532 98.5655 182.097 113.766 143.646C120.565 126.823 130.165 96.3825 134.565 75.5547C139.365 54.7273 144.166 33.4995 145.366 28.292C146.966 22.2842 145.766 19.4797 141.366 19.4795C137.766 19.4795 134.566 25.0872 132.966 35.501C129.766 55.9282 110.566 116.809 108.166 114.406C106.966 113.605 110.965 94.3799 116.565 72.3506C128.165 25.488 128.565 19.4795 120.565 19.4795C117.366 19.4797 114.565 23.0846 114.565 27.4902C114.565 31.8961 108.165 55.1272 100.565 78.7588C72.1653 167.277 68.9655 186.503 69.7655 265.809C70.5655 346.316 67.3658 367.945 44.1659 437.638L29.7655 481.296L31.3661 557.799L33.3661 634.301L53.7655 685.169C64.9655 713.206 77.7659 743.246 82.1659 751.657C88.1659 763.673 90.9657 779.294 92.9657 814.941C94.1657 841.377 99.7657 891.444 104.966 926.691C114.566 993.981 121.766 1087.71 114.166 1052.86C112.166 1042.85 105.366 988.774 98.9657 932.699C82.1658 784.502 78.9652 765.276 68.5653 744.849C63.7653 734.835 55.7657 713.606 50.9657 698.386C38.1658 655.929 35.7657 655.129 32.9657 690.776C30.5657 716.41 32.1659 731.631 40.1659 770.482C54.5659 840.976 61.3657 875.422 72.9657 944.715C78.5657 978.76 85.7657 1020.42 88.9657 1036.84C91.7657 1053.26 94.1653 1088.11 94.5653 1113.74C94.5653 1152.99 95.7656 1161 100.565 1161C107.765 1161 107.765 1164.21 100.565 1096.92C89.3654 989.976 85.7658 962.339 78.1659 929.495C73.7659 910.67 68.9657 870.216 66.9657 835.369C64.1657 787.305 61.7657 770.482 54.9657 755.262C50.5658 744.848 48.1659 737.238 50.1659 738.439C56.1659 742.045 69.3659 780.897 72.1659 802.525C73.3659 813.34 76.5653 846.584 78.5653 875.823C80.9653 905.062 86.1653 943.914 90.5653 961.938C94.9653 979.562 100.165 1012.01 102.565 1033.63C104.565 1055.26 108.566 1091.31 110.966 1113.74C113.366 1136.57 116.966 1156.6 118.966 1159C122.966 1162.61 122.165 1150.59 116.565 1103.73C114.565 1090.91 115.766 1088.91 122.166 1088.91C131.766 1088.91 133.366 1094.11 136.966 1131.76C139.766 1161 139.766 1161 151.366 1161C162.566 1161 163.366 1160.2 160.966 1149.79C159.366 1143.78 156.565 1121.75 154.565 1100.92C146.565 1021.22 138.965 977.96 122.565 918.681C117.765 901.057 112.166 867.812 110.166 844.581C106.166 793.713 100.166 769.281 80.9657 724.421C61.7658 678.76 62.9655 669.948 82.5653 711.604C101.365 751.256 118.166 812.139 121.366 850.59C122.566 865.811 130.566 906.264 138.966 940.31C155.766 1006.8 160.965 1038.04 166.565 1106.93C168.165 1130.96 170.166 1152.19 170.166 1153.79C170.566 1155.8 178.166 1157 187.766 1157H204.966L209.766 1052.06C215.766 921.084 224.166 839.374 237.366 782.498C249.766 728.025 252.565 660.735 247.766 516.143C245.766 460.068 245.766 397.584 247.366 377.958C249.366 357.931 251.366 274.62 252.166 192.911C253.366 61.1354 252.966 41.9093 246.966 30.6943C242.166 20.6812 237.765 17.0765 227.766 16.2754L215.366 15.0742L225.366 40.3076ZM265.766 60.7344C266.565 83.5647 265.766 114.006 263.366 128.024C260.566 145.247 260.165 182.097 262.565 241.776C265.365 313.472 264.565 336.303 259.766 363.939C254.966 393.178 254.566 411.203 258.966 494.113C266.966 642.712 263.766 705.596 244.966 789.308C239.366 813.34 234.165 849.387 232.565 869.414C231.365 889.841 227.366 936.304 224.166 972.753C220.966 1009.2 218.566 1064.88 219.366 1096.92C220.566 1151.79 220.966 1155 228.565 1155C234.965 1155 236.166 1152.99 234.966 1144.98C234.166 1139.37 233.766 1084.5 233.766 1022.42C234.166 916.678 234.566 907.465 244.166 865.409C250.166 840.977 257.365 798.92 260.565 771.684C270.565 685.569 276.166 649.922 277.766 657.933C279.765 666.346 270.565 753.261 256.565 860.603C249.365 915.476 246.966 957.132 246.166 1020.82C244.966 1146.58 245.366 1152.99 252.966 1152.99C257.766 1152.99 258.965 1150.99 256.565 1143.78C254.965 1138.97 252.566 1093.31 251.766 1042.45C249.766 947.919 251.366 930.296 268.166 850.99C271.366 836.17 275.366 798.12 276.966 766.878C278.166 733.634 282.566 697.185 287.366 678.359C291.766 659.134 295.766 625.088 296.966 594.247C298.966 545.382 298.565 540.175 288.565 512.138C280.165 488.106 277.765 472.885 276.565 436.036C275.365 401.991 275.765 394.781 278.565 407.998C280.565 418.011 282.166 435.235 282.166 446.45C282.566 458.066 286.165 478.493 290.565 492.512C306.165 543.379 311.365 576.623 306.565 597.451C302.165 618.279 289.365 727.625 282.565 806.53C280.165 832.966 274.565 870.216 270.565 889.041C256.165 953.126 252.166 1023.62 259.366 1090.11C262.566 1122.55 266.166 1149.79 266.966 1150.59C267.766 1151.39 274.566 1150.99 281.766 1150.19L294.565 1148.19L291.766 1127.36C286.966 1096.92 288.566 935.502 294.166 866.61C296.966 833.366 304.165 759.668 310.565 702.392C317.365 645.116 322.565 582.633 322.565 563.006C322.565 543.78 324.166 528.159 326.166 528.159C335.766 528.16 334.565 555.397 312.565 778.493C296.565 944.314 293.366 999.589 296.166 1054.86C300.166 1136.57 301.766 1144.98 312.966 1144.98C318.166 1144.98 322.565 1144.18 322.565 1143.38C322.564 1142.57 320.165 1128.56 316.966 1112.14C307.366 1062.07 305.766 1032.43 310.166 984.769C315.366 924.688 321.365 855.797 326.565 788.507C328.965 758.867 333.365 714.007 336.565 689.174C341.765 651.123 341.766 625.889 338.166 538.974C336.166 481.297 334.566 376.356 335.366 305.862C336.566 176.09 331.766 43.1135 326.166 57.5303C318.566 78.7586 312.966 139.64 313.366 197.718L313.766 261.804L307.366 211.736C301.766 166.075 301.766 158.866 308.166 127.224C311.766 108.398 314.565 78.358 314.565 60.334C314.565 28.2915 314.565 28.2919 303.766 25.8887C297.366 24.6871 286.166 22.684 278.166 21.4824L263.766 18.6787L265.766 60.7344ZM38.9657 986.771C39.3658 969.148 46.9664 998.787 54.5663 1048.45C60.5662 1087.3 61.7656 1104.93 58.9657 1124.96L55.7655 1150.99L54.9657 1124.55C54.9657 1110.14 50.9663 1074.89 46.5663 1046.45C42.1663 1018.01 38.5657 991.176 38.9657 986.771ZM321.366 958.733C319.766 965.142 317.366 993.981 316.166 1022.82C314.166 1067.28 314.966 1079.29 322.166 1104.93L330.166 1134.97V1056.87C330.166 1014.01 328.966 971.551 326.966 962.739L324.166 946.718L321.366 958.733ZM228.166 478.093C232.566 455.262 235.766 464.474 238.966 509.334C249.766 658.333 248.165 696.785 226.565 760.47C211.365 806.131 202.965 851.392 198.565 917.079C194.965 975.156 188.965 1006 180.565 1012.81C170.566 1021.22 166.566 1002.39 158.966 913.474C150.566 820.55 149.366 815.342 128.966 780.896C121.366 768.48 112.165 747.652 108.565 734.435C104.965 721.217 93.7658 695.182 84.1659 676.357C66.966 642.312 58.1658 612.272 65.7655 612.271C67.7655 612.271 70.5661 620.283 71.3661 630.296C72.9661 641.911 77.7657 653.527 84.9657 662.739C106.166 689.174 107.366 691.978 114.166 723.62C121.766 756.865 129.766 773.287 145.366 786.905C159.366 798.922 165.365 828.962 170.565 908.667C172.565 947.118 176.565 980.364 178.565 982.366C184.565 988.374 185.766 979.562 188.166 916.678C190.966 844.982 198.566 797.719 213.766 757.666C220.566 740.443 228.166 715.609 230.966 702.392C237.766 669.948 237.766 570.215 230.966 527.759C227.766 508.533 226.566 486.504 228.166 478.093ZM127.766 250.589C124.566 224.154 132.165 228.559 138.565 256.597C141.365 268.212 146.966 283.432 150.966 290.241C155.366 297.05 158.565 307.063 158.565 312.671C158.565 332.297 170.566 363.539 181.766 371.95C187.765 376.757 194.566 384.367 196.966 388.772C200.966 395.982 202.165 393.579 206.565 371.55C213.365 339.507 213.366 339.107 218.166 482.098C222.966 627.892 220.965 652.726 198.565 698.787C179.765 737.639 168.965 746.05 151.766 736.438C146.166 733.233 139.766 726.023 138.166 720.416C134.966 711.604 134.966 711.203 140.166 717.211C142.966 721.216 150.966 724.421 157.766 724.421C168.965 724.421 171.765 721.617 186.565 696.384C195.365 681.164 204.565 659.534 206.565 647.919C215.365 602.258 210.166 469.681 198.166 422.818C190.966 395.582 149.765 358.733 133.365 365.142C119.765 370.349 94.9649 411.604 81.3651 452.858C57.3652 523.352 56.5656 580.629 78.5653 605.462C84.5653 612.672 91.3655 625.089 93.7655 633.5C96.1657 641.911 105.366 656.731 114.166 666.744C123.366 676.357 130.565 687.172 130.565 690.776C130.565 699.988 104.166 665.943 92.9657 641.911C87.7657 631.097 78.9651 616.677 73.3651 609.868C54.5652 587.038 53.3659 582.231 56.1659 532.564C59.7659 472.084 66.9654 446.049 90.5653 401.99C101.365 381.964 114.965 355.529 121.365 343.112C127.365 330.295 133.766 320.281 134.966 319.881C136.566 319.881 138.965 324.687 140.565 330.695C143.365 341.91 157.365 359.934 163.365 359.935C164.965 359.935 162.966 352.324 158.966 342.711C142.166 306.263 129.766 269.414 127.766 250.589ZM123.766 389.975C134.965 381.964 135.766 382.364 150.565 394.38C166.965 408.399 175.766 426.823 186.166 468.078C198.166 518.145 202.966 562.605 198.166 585.035C195.766 595.849 193.366 604.26 192.966 604.261C192.566 604.261 191.766 590.242 191.766 573.019C191.765 536.169 179.765 484.501 162.565 450.055C156.165 436.837 148.166 419.213 144.966 410.802C141.766 402.791 136.166 395.982 132.966 395.982C124.166 395.982 108.965 420.415 92.5653 461.27C73.7654 507.331 73.3654 535.769 90.5653 584.233C99.7653 609.467 107.765 623.086 120.565 637.104C130.565 647.919 140.566 656.33 143.366 656.33C154.966 656.33 175.365 639.107 182.565 623.086C186.965 613.874 189.366 610.669 188.166 616.276C179.366 650.322 152.566 671.15 128.966 661.938C125.366 660.736 122.565 657.531 122.565 654.728C122.565 652.324 115.365 641.509 106.966 631.096C87.3658 607.464 70.5653 559.4 70.5653 527.758C70.5656 492.511 104.966 403.193 123.766 389.975ZM109.366 447.251C117.766 438.039 139.366 438.039 147.366 446.851C150.966 450.856 158.166 462.872 163.766 474.087C172.165 491.31 173.766 501.724 176.166 551.79L179.366 609.066L168.166 620.683C162.166 627.091 153.366 632.298 148.966 632.298C138.166 632.298 107.366 603.459 104.966 591.443C104.166 586.236 100.566 568.612 96.9657 552.19C86.1658 502.124 90.1662 468.479 109.366 447.251ZM277.766 584.634C278.966 565.008 280.566 556.998 282.966 560.603C287.365 567.814 287.766 624.286 282.966 624.287C277.366 624.287 276.166 616.276 277.766 584.634ZM150.566 474.087C131.366 454.06 120.566 456.463 106.966 482.898C101.366 493.713 101.366 543.78 106.566 572.618C111.766 599.454 120.566 608.666 143.766 611.069C161.365 613.072 162.166 612.672 164.566 601.857C166.166 595.449 167.766 588.239 168.166 586.236C168.966 583.833 168.166 561.002 166.966 535.368C164.166 488.506 164.166 488.105 150.566 474.087ZM93.3661 160.869C93.7656 161.673 92.1652 177.694 89.7655 196.917C85.7655 226.957 86.1653 235.369 92.5653 264.207C102.565 307.064 97.3653 349.922 76.5653 401.991C61.7654 438.84 54.1657 477.292 44.9657 562.205L40.1659 606.264L36.9657 583.032C34.1658 562.205 36.1654 540.976 48.5653 458.065C49.7654 451.256 55.7655 434.835 62.5653 420.816C79.7653 383.967 83.7659 353.125 80.1659 273.819C77.7659 214.14 78.5658 202.525 84.9657 182.498C88.5657 170.081 92.5661 160.469 93.3661 160.869ZM119.366 477.291C125.366 469.682 137.366 479.294 144.966 498.119C148.566 506.931 151.765 527.759 152.565 544.181C153.365 560.603 153.366 569.815 152.166 564.207C143.366 516.144 136.566 487.306 133.766 485.703C131.766 484.502 125.765 486.103 120.565 489.708C111.366 495.716 110.966 495.716 113.366 489.308C114.566 485.302 117.366 480.095 119.366 477.291ZM292.966 80.7617C294.566 55.1285 296.966 40.7087 299.766 42.3096C302.166 43.9117 302.566 59.9338 300.166 89.1729C295.366 150.054 295.766 208.532 301.366 293.846C307.766 389.574 310.965 517.745 306.565 502.524C302.965 490.508 297.366 406.796 290.966 269.813C287.366 197.717 287.766 157.664 292.966 80.7617ZM100.166 19.8799C84.9659 21.8826 82.5653 24.6872 82.5653 39.1064C82.5652 47.5178 78.9652 64.7406 74.5653 77.958C69.7653 90.7753 63.7653 120.415 60.5653 143.646C54.9653 182.898 47.3653 214.14 44.5653 210.936C43.7655 210.134 45.366 196.916 48.1659 181.696C51.3659 166.075 54.9653 142.845 56.5653 129.627C58.1653 116.409 61.7657 94.7801 64.9657 81.5625C67.7657 68.3449 70.5653 49.9204 70.5653 40.3076C70.5653 23.8857 70.1655 23.0845 59.7655 24.2861C49.3656 25.4877 47.7655 27.8911 39.7655 59.5332C30.9655 91.9765 30.5661 89.1729 37.3661 40.3076C39.7661 23.4854 37.3658 20.6816 27.3661 27.0898C23.3661 29.4931 22.9659 42.7112 26.1659 93.5791C28.1659 128.025 30.9655 157.264 31.7655 158.466C35.3656 161.669 42.5657 119.613 42.9657 94.3799C43.3657 80.7617 44.9657 65.1407 46.9657 59.5332C55.3657 34.7003 43.7657 176.089 34.9657 205.729C32.9657 212.137 30.1653 262.604 28.5653 317.878C26.5653 399.988 27.3661 416.41 31.3661 410.001C34.966 404.393 37.3653 377.556 38.5653 323.886C41.3653 220.548 48.5659 206.13 48.1659 305.062C47.7659 371.95 46.9657 380.763 36.9657 413.606C30.9661 433.231 26.9662 449.652 27.7655 450.855C30.9655 453.659 42.5661 420.415 51.3661 383.165C60.166 346.717 60.5659 334.3 58.1659 253.793C57.3659 223.753 59.3656 204.928 65.7655 177.691C70.1655 157.665 79.7659 118.011 86.1659 89.5732C92.9657 60.7356 99.7654 33.5 100.966 28.292C102.566 23.4858 101.766 19.8803 100.166 19.8799ZM319.366 363.94C319.366 325.089 320.565 301.857 322.565 307.865C324.165 313.473 325.766 338.707 325.766 363.94C325.765 389.174 324.165 414.407 322.565 420.015C320.565 426.023 319.366 402.792 319.366 363.94ZM276.966 57.5303C274.966 34.7005 275.366 26.6899 278.565 29.8936C283.765 35.1005 284.565 82.7643 280.565 184.1C278.165 248.185 278.965 272.618 284.565 317.478C288.165 347.917 290.566 373.55 289.366 374.354C284.166 379.56 274.566 328.292 270.166 272.617C266.166 220.147 266.565 203.325 272.565 150.454C276.965 110.801 278.566 78.358 276.966 57.5303ZM172.566 196.516C187.766 182.097 200.565 180.094 205.766 190.508C207.766 194.513 209.366 229.76 208.966 269.013C208.566 340.307 208.566 340.308 198.566 347.918C192.966 352.324 186.566 355.929 183.766 355.929C175.766 355.928 169.766 340.708 166.166 311.068C164.166 296.249 158.166 271.817 152.166 257.397C146.566 242.978 142.966 230.161 144.166 228.959C149.766 222.952 169.766 265.408 173.766 292.645C177.366 317.478 186.566 337.104 192.166 331.496C192.966 330.695 194.566 299.052 194.966 261.803C196.166 196.918 196.166 193.712 188.566 193.712C184.166 193.712 177.366 199.32 172.566 206.129C154.166 234.967 154.166 234.967 156.566 221.75C157.766 214.941 164.966 203.725 172.566 196.516ZM189.366 199.721C193.366 199.723 187.766 253.393 182.166 265.81L177.366 277.825L174.166 259.801C169.366 230.562 170.166 221.35 178.966 210.135C183.366 204.527 188.166 199.721 189.366 199.721ZM187.366 81.5625C198.966 73.9525 208.966 73.9522 212.166 81.9629C213.366 85.5677 214.565 106.395 214.565 128.825C214.565 158.465 216.965 176.89 222.565 194.914C231.765 224.954 232.565 248.986 224.565 265.809C218.965 277.023 218.565 276.222 220.565 247.784C222.565 222.15 220.965 212.938 212.565 187.704C203.365 161.269 202.165 153.659 204.565 124.42C207.765 85.568 203.766 82.3633 181.766 106.796C168.166 122.016 154.965 156.463 146.565 197.317C144.965 206.529 142.965 210.935 142.565 207.73C137.766 172.884 164.566 97.9844 187.366 81.5625ZM331.366 187.704C335.366 204.126 331.366 258.597 326.166 262.203C321.766 264.606 321.366 213.339 325.366 189.707L328.166 173.686L331.366 187.704ZM193.366 111.603C198.966 111.603 199.365 112.403 193.766 118.411C190.166 122.416 183.766 137.237 178.966 151.656C174.566 166.075 165.766 182.898 160.166 189.707L150.166 201.723L156.166 189.707C159.366 182.898 164.965 166.876 168.565 153.658C172.165 140.441 177.766 125.621 180.966 120.414C184.166 115.608 189.766 111.603 193.366 111.603Z" fill="black"/>
</svg>
